<svg viewBox="0 0 10 10" class="svg" xmlns="http://www.w3.org/2000/svg" xmlns:xlink="http://www.w3.org/1999/xlink" width="10" height="10"><path d="M5 7.25C5.1275 7.25 5.23438 7.20688 5.32063 7.12063C5.40688 7.03438 5.45 6.9275 5.45 6.8C5.45 6.6725 5.40688 6.56563 5.32063 6.47938C5.23438 6.39313 5.1275 6.35 5 6.35C4.8725 6.35 4.76563 6.39313 4.67938 6.47938C4.59313 6.56563 4.55 6.6725 4.55 6.8C4.55 6.9275 4.59313 7.03438 4.67938 7.12063C4.76563 7.20688 4.8725 7.25 5 7.25ZM4.55 5.45H5.45V2.75H4.55V5.45ZM5 9.5C4.3775 9.5 3.7925 9.38188 3.245 9.14563C2.6975 8.90938 2.22125 8.58875 1.81625 8.18375C1.41125 7.77875 1.09063 7.3025 0.854375 6.755C0.618125 6.2075 0.5 5.6225 0.5 5C0.5 4.3775 0.618125 3.7925 0.854375 3.245C1.09063 2.6975 1.41125 2.22125 1.81625 1.81625C2.22125 1.41125 2.6975 1.09063 3.245 0.854375C3.7925 0.618125 4.3775 0.5 5 0.5C5.6225 0.5 6.2075 0.618125 6.755 0.854375C7.3025 1.09063 7.77875 1.41125 8.18375 1.81625C8.58875 2.22125 8.90938 2.6975 9.14563 3.245C9.38188 3.7925 9.5 4.3775 9.5 5C9.5 5.6225 9.38188 6.2075 9.14563 6.755C8.90938 7.3025 8.58875 7.77875 8.18375 8.18375C7.77875 8.58875 7.3025 8.90938 6.755 9.14563C6.2075 9.38188 5.6225 9.5 5 9.5ZM5 8.6C6.005 8.6 6.85625 8.25125 7.55375 7.55375C8.25125 6.85625 8.6 6.005 8.6 5C8.6 3.995 8.25125 3.14375 7.55375 2.44625C6.85625 1.74875 6.005 1.4 5 1.4C3.995 1.4 3.14375 1.74875 2.44625 2.44625C1.74875 3.14375 1.4 3.995 1.4 5C1.4 6.005 1.74875 6.85625 2.44625 7.55375C3.14375 8.25125 3.995 8.6 5 8.6Z" fill="none" stroke-width="1" stroke="#999083" data-darkreader-inline-stroke="" style="--darkreader-inline-stroke: #999083;"></path></svg>