<svg viewBox="0 0 10 10" class="svg" xmlns="http://www.w3.org/2000/svg" xmlns:xlink="http://www.w3.org/1999/xlink" width="10" height="10"><path d="M3.4933 9.05C3.4933 9.275 3.6942 9.5 3.99554 9.5H6.00446C6.3058 9.5 6.5067 9.275 6.5067 9.05V8.6H3.4933V9.05ZM5 0.5C3.04129 0.5 1.48438 1.895 1.48438 3.65C1.48438 4.73 2.08705 5.675 2.99107 6.215V7.25C2.99107 7.475 3.19196 7.7 3.4933 7.7H6.5067C6.80804 7.7 7.00893 7.475 7.00893 7.25V6.215C7.91295 5.63 8.51562 4.685 8.51562 3.65C8.51562 1.895 6.95871 0.5 5 0.5Z" fill="none" stroke-width="1" stroke-opacity="0.4" stroke="#FFFFFF"></path></svg>