<svg viewBox="0 0 10 10" class="svg" xmlns="http://www.w3.org/2000/svg" xmlns:xlink="http://www.w3.org/1999/xlink" width="10" height="10"><path d="M5.48305 0.689071C5.212 0.436976 4.788 0.436976 4.51695 0.689071L1.11135 3.85648C0.900641 4.05246 0.78125 4.32513 0.78125 4.61039V8.46249C0.78125 9.03547 1.25345 9.5 1.83594 9.5H2.89062C3.47311 9.5 3.94531 9.03547 3.94531 8.46249V6.7333C3.94531 6.54232 4.10271 6.38749 4.29688 6.38749H5.70312C5.89729 6.38749 6.05469 6.54232 6.05469 6.7333V8.46249C6.05469 9.03547 6.52691 9.5 7.10938 9.5H8.16406C8.74653 9.5 9.21875 9.03547 9.21875 8.46249V4.61039C9.21875 4.32513 9.09936 4.05246 8.88863 3.85648L5.48305 0.689071Z" fill="none" stroke-width="1" stroke="#FFFFFF"></path></svg>